<svg version="1.0" xmlns="http://www.w3.org/2000/svg"
 width="284.000000pt" height="284.000000pt" viewBox="0 0 284.000000 284.000000"
 preserveAspectRatio="xMidYMid meet">
<metadata>
Created by potrace 1.15, written by Peter Selinger 2001-2017
</metadata>
<g transform="translate(0.000000,284.000000) scale(0.100000,-0.100000)"
fill="#000000" stroke="none">
<path d="M0 1420 l0 -1420 1420 0 1420 0 0 1420 0 1420 -1420 0 -1420 0 0
-1420z m1451 735 c11 -28 17 -33 35 -29 22 6 64 -24 64 -45 0 -14 -29 -41 -44
-41 -18 0 -39 27 -31 40 9 14 26 13 23 -2 -2 -7 4 -13 12 -13 20 0 19 25 -2
38 -24 16 -58 -17 -58 -55 l0 -29 53 6 c28 4 59 9 67 11 8 3 11 2 7 -3 -5 -4
9 -12 30 -18 28 -8 38 -16 38 -30 0 -14 15 -27 48 -42 60 -28 73 -28 115 -3
38 24 52 25 52 6 0 -8 -17 -21 -37 -29 -21 -9 -30 -16 -20 -16 10 -1 28 4 39
10 18 9 24 8 35 -7 12 -17 13 -17 13 4 0 18 6 22 31 22 38 0 37 -23 -3 -53
-25 -18 -31 -19 -85 -7 -32 7 -66 13 -75 13 -10 1 -18 4 -18 8 0 4 -8 10 -17
13 -13 5 -12 1 6 -18 22 -23 23 -66 2 -66 -14 0 -33 28 -27 39 3 5 -1 11 -9
15 -8 3 -15 11 -15 19 0 7 -11 24 -25 37 -14 13 -25 19 -25 13 0 -6 6 -16 14
-22 18 -15 26 -45 16 -62 -13 -20 -37 5 -44 45 -4 18 -17 43 -29 55 -29 27
-132 50 -148 34 -8 -8 -16 -9 -29 -1 -22 14 -97 3 -135 -20 -20 -12 -33 -33
-44 -67 -10 -31 -22 -50 -31 -50 -24 0 -23 32 1 66 l22 31 -22 -12 c-13 -6
-27 -25 -33 -41 -5 -16 -17 -29 -25 -29 -12 0 -13 -3 -4 -14 9 -10 8 -16 -3
-26 -33 -27 -48 17 -20 60 l16 25 -20 -22 c-20 -23 -39 -32 -27 -13 8 13 10
13 -49 -5 -66 -20 -92 -19 -116 5 -28 28 -26 50 5 50 19 0 25 -5 25 -21 0 -18
2 -19 15 -5 12 12 22 13 45 5 16 -6 35 -9 42 -6 7 3 3 6 -8 6 -12 1 -32 10
-45 20 -21 17 -22 20 -7 26 11 4 28 -1 44 -14 15 -12 37 -21 50 -21 35 0 115
42 110 57 -6 15 31 43 56 43 10 0 18 4 18 10 0 5 6 8 13 5 6 -2 36 -6 65 -10
l52 -6 0 30 c0 31 -22 61 -44 61 -22 0 -41 -29 -28 -42 12 -12 35 -1 27 13 -4
5 -2 9 4 9 17 0 23 -20 11 -35 -16 -19 -35 -19 -54 1 -21 20 -20 30 5 55 14
14 28 19 45 15 16 -4 24 -2 24 7 0 16 28 57 40 57 5 0 14 -16 21 -35z m-693
-257 c18 -18 14 -45 -9 -61 -26 -19 -13 -27 46 -32 42 -4 61 7 33 18 -7 3 -3
6 9 6 12 1 24 9 28 21 7 22 21 26 27 9 7 -20 103 -22 138 -4 32 17 66 13 55
-5 -7 -11 -99 -60 -112 -60 -4 1 18 14 50 31 77 39 73 45 -6 8 -157 -73 -298
-70 -328 8 -18 48 35 95 69 61z m1390 0 c35 -35 -3 -99 -68 -118 -59 -17 -215
21 -297 71 -47 29 -36 34 22 8 37 -16 59 -20 94 -15 25 3 50 11 55 16 15 15
24 12 31 -10 3 -11 13 -20 20 -20 9 0 12 -6 8 -17 -6 -14 0 -15 41 -10 62 9
72 16 47 34 -34 23 -21 73 19 73 9 0 21 -5 28 -12z m-1375 -259 c49 -13 77
-57 77 -122 0 -59 -21 -102 -60 -122 -40 -21 -71 -19 -111 8 -78 52 -70 189
13 230 40 20 34 19 81 6z m262 -3 c19 -8 35 -11 35 -5 0 5 5 9 10 9 6 0 10
-18 10 -39 0 -22 -4 -43 -10 -46 -5 -3 -10 3 -10 14 0 28 -38 61 -71 61 -46 0
-69 -40 -69 -121 0 -56 4 -73 20 -89 20 -20 54 -26 84 -14 24 9 21 65 -4 71
-35 9 -21 23 24 23 l43 0 -5 -52 c-5 -55 -11 -72 -19 -51 -3 9 -11 8 -29 -4
-31 -20 -88 -12 -120 18 -66 62 -49 190 31 225 38 17 39 17 80 0z m272 -12
c32 -20 45 -50 46 -103 1 -78 -50 -141 -113 -141 -34 0 -78 28 -95 60 -8 16
-15 52 -15 79 0 42 5 56 30 85 42 47 93 54 147 20z m281 -69 c30 -47 55 -85
58 -85 2 0 4 34 4 75 0 60 -3 75 -15 75 -8 0 -15 5 -15 10 0 6 16 10 35 10 19
0 35 -4 35 -10 0 -5 -4 -10 -10 -10 -6 0 -10 -45 -10 -115 0 -70 -4 -115 -10
-115 -5 0 -40 46 -77 102 l-68 101 -3 -89 c-2 -75 0 -91 14 -101 16 -11 13
-13 -22 -12 -21 0 -33 3 -26 6 15 6 18 223 2 223 -5 0 -10 5 -10 10 0 6 15 10
33 10 29 0 36 -7 85 -85z m272 -22 c44 -116 59 -139 84 -130 25 10 23 204 -1
224 -16 12 -14 13 21 11 l39 -3 35 -94 35 -93 36 93 c35 90 38 94 69 97 18 2
32 -1 32 -7 0 -6 -4 -11 -10 -11 -16 0 -13 -217 3 -223 6 -3 -10 -6 -36 -6
-44 -1 -47 0 -33 15 12 11 16 36 16 96 0 45 -2 79 -4 77 -2 -2 -21 -46 -41
-96 -20 -51 -40 -93 -44 -93 -3 0 -23 42 -43 93 l-37 92 0 -82 c-1 -68 2 -84
17 -92 12 -8 -7 -10 -73 -10 -49 0 -84 3 -77 6 15 6 15 25 0 58 -9 20 -18 25
-48 25 -33 0 -39 -4 -51 -31 -11 -28 -10 -33 6 -45 17 -13 15 -14 -19 -14 -30
0 -36 3 -28 13 6 6 29 59 52 117 43 108 49 120 55 120 2 0 22 -48 45 -107z
m553 100 c2 -5 0 -21 -3 -38 l-7 -30 -7 28 c-7 24 -13 27 -52 27 l-44 0 0 -50
c0 -43 3 -50 19 -50 11 0 23 9 26 20 11 34 20 22 22 -30 1 -50 -10 -67 -20
-30 -3 12 -14 20 -27 20 -19 0 -21 -5 -18 -47 3 -44 5 -48 30 -51 36 -4 68 14
68 38 0 11 5 20 10 20 6 0 10 -16 10 -35 l0 -35 -97 0 c-72 1 -93 3 -80 11 14
8 17 26 17 114 0 63 -4 105 -10 105 -5 0 -10 5 -10 10 0 12 167 14 173 3z
m-1415 -615 c91 -40 107 -41 35 -4 -27 14 -43 25 -38 25 21 1 88 -45 91 -61 3
-22 6 -22 -51 3 -36 16 -58 19 -91 14 -24 -3 -46 -10 -49 -16 -10 -15 -23 -10
-30 12 -4 13 -12 18 -22 15 -11 -4 -13 -2 -9 9 6 15 -11 20 -64 15 -38 -3 -44
-11 -21 -27 38 -26 20 -73 -26 -73 -50 0 -46 86 6 115 19 11 48 15 106 12 65
-3 95 -10 163 -39z m1131 16 c51 -42 36 -110 -21 -102 -32 4 -37 50 -7 71 21
15 21 16 -15 25 -20 6 -48 7 -63 2 -16 -5 -22 -9 -15 -9 6 -1 12 -6 12 -12 0
-6 -7 -9 -14 -6 -9 4 -17 -2 -21 -14 -7 -20 -20 -25 -30 -10 -3 6 -25 13 -50
16 -47 7 -124 -15 -146 -41 -9 -11 -3 -10 26 2 56 23 118 23 144 0 28 -26 26
-43 -5 -49 -20 -3 -28 0 -31 14 -4 15 -8 16 -24 6 -14 -9 -21 -9 -31 1 -6 6
-21 12 -32 12 -16 -1 -13 -5 13 -18 19 -9 36 -23 39 -29 5 -18 -33 -16 -47 1
-27 32 -64 28 -154 -15 -48 -23 -85 -44 -83 -46 3 -3 19 2 37 11 18 9 35 13
38 10 10 -9 -31 -34 -57 -34 -13 0 -21 -4 -17 -10 4 -7 -2 -9 -17 -6 -12 3
-42 7 -65 10 l-43 6 0 -33 c0 -38 15 -57 46 -57 21 0 39 22 27 34 -13 12 -32
6 -27 -9 4 -8 2 -15 -4 -15 -14 0 -22 24 -12 39 10 17 50 10 64 -11 14 -23
-18 -58 -53 -58 -19 0 -30 -9 -41 -31 -9 -17 -20 -31 -25 -31 -5 0 -16 14 -25
31 -11 23 -22 31 -42 31 -34 0 -61 35 -47 62 12 22 55 24 63 2 7 -18 0 -34
-16 -34 -5 0 -8 7 -4 15 5 15 -14 21 -27 9 -12 -12 6 -34 27 -34 31 0 46 19
46 57 l0 33 -42 -6 c-24 -3 -53 -7 -65 -10 -13 -2 -23 0 -23 6 0 5 -11 10 -24
10 -25 0 -66 32 -49 37 5 2 23 -3 38 -11 16 -9 31 -13 34 -11 6 7 7 6 -93 50
l-88 39 -45 -24 c-33 -17 -47 -20 -55 -12 -9 9 0 17 33 31 24 12 36 21 27 21
-9 0 -28 -5 -42 -11 -20 -9 -29 -9 -41 1 -13 10 -15 9 -15 -9 0 -19 -4 -21
-22 -15 -32 9 -33 11 -20 39 7 15 21 26 34 26 45 3 94 -3 126 -16 17 -8 32
-11 32 -8 0 3 8 -1 17 -8 16 -13 16 -13 0 11 -31 44 -13 90 21 56 14 -14 14
-18 4 -25 -11 -7 -11 -9 2 -14 9 -4 21 -18 26 -31 5 -14 19 -30 31 -37 l22
-12 -21 28 c-22 28 -29 60 -14 69 15 9 30 -9 41 -50 13 -48 32 -67 81 -82 72
-21 98 -22 105 -4 6 16 7 16 19 0 10 -13 20 -15 60 -7 79 15 99 29 117 82 20
60 32 73 48 53 11 -13 9 -22 -9 -52 -23 -36 -23 -36 -2 -23 12 8 26 26 31 41
6 16 15 28 21 28 6 0 8 5 5 10 -7 11 12 40 26 40 15 0 21 -41 7 -58 -12 -16
-11 -16 7 -1 63 52 196 98 287 98 57 1 71 -3 97 -25z"/>
<path d="M689 1598 c-16 -26 -19 -46 -17 -95 4 -72 25 -103 70 -103 55 0 86
96 57 179 -21 59 -78 69 -110 19z"/>
<path d="M1201 1611 c-57 -57 -29 -211 38 -211 39 0 63 31 69 89 6 61 -2 95
-28 121 -25 25 -55 25 -79 1z"/>
</g>
</svg>